<svg aria-hidden="true" style="position: absolute; width: 0; height: 0; overflow: hidden;" version="1.1" xmlns="http://www.w3.org/2000/svg" xmlns:xlink="http://www.w3.org/1999/xlink">
<defs>
<symbol id="icon-close" viewBox="0 0 24 24">
<title>close</title>
<path d="M13.591 12l4.453-4.453c0.204-0.204 0.33-0.486 0.33-0.797 0-0.622-0.504-1.126-1.126-1.126-0.311 0-0.592 0.126-0.795 0.329l-4.453 4.453-4.453-4.453c-0.204-0.204-0.486-0.33-0.797-0.33-0.622 0-1.127 0.505-1.127 1.127 0 0.311 0.126 0.593 0.33 0.797l4.453 4.453-4.453 4.453c-0.204 0.204-0.33 0.486-0.33 0.797 0 0.622 0.505 1.127 1.127 1.127 0.311 0 0.593-0.126 0.797-0.33l4.453-4.453 4.453 4.453c0.204 0.204 0.486 0.33 0.797 0.33 0.622 0 1.127-0.505 1.127-1.127 0-0.311-0.126-0.593-0.33-0.797v0z"></path>
</symbol>
<symbol id="icon-cam" viewBox="0 0 24 24">
<title>cam</title>
<path d="M21.75 18.018c-0.221-0-0.43-0.048-0.619-0.134l0.009 0.004c-0.049-0.022-0.090-0.046-0.129-0.074l0.002 0.002-3.877-2.729c-0.387-0.275-0.636-0.721-0.637-1.226v-3.722c0-0.505 0.25-0.951 0.632-1.223l0.005-0.003 3.877-2.729c0.037-0.026 0.078-0.050 0.122-0.070l0.005-0.002c0.179-0.082 0.389-0.129 0.609-0.129 0.828 0 1.5 0.672 1.5 1.5v0 9.036c0 0.828-0.672 1.5-1.5 1.5v0z"></path>
<path d="M12.563 18.75h-8.625c-1.76-0.002-3.186-1.428-3.188-3.187v-7.125c0.002-1.76 1.428-3.186 3.187-3.188h8.648c1.747 0.002 3.163 1.418 3.165 3.165v7.148c-0.002 1.76-1.428 3.186-3.187 3.188h-0z"></path>
</symbol>
<symbol id="icon-doc" viewBox="0 0 24 24">
<title>doc</title>
<path d="M7.2 4.8h-1.2c-0.663 0-1.2-0.537-1.2-1.2s0.537-1.2 1.2-1.2v0h13.2v-1.2c0-0.663-0.537-1.2-1.2-1.2v0h-13.2c-1.325 0-2.4 1.075-2.4 2.4v0 19.2c0 1.32 1.080 2.4 2.4 2.4h14.4c1.325 0 2.4-1.075 2.4-2.4v0-15.6c0-0.663-0.537-1.2-1.2-1.2v0h-8.4v9.6l-2.4-2.4-2.4 2.4v-9.6z"></path>
</symbol>
<symbol id="icon-mail" viewBox="0 0 24 24">
<title>mail</title>
<path d="M21.591 6.905l-5.044 5.137c-0.038 0.037-0.038 0.094 0 0.131l3.53 3.759c0.239 0.239 0.239 0.623 0 0.862-0.117 0.117-0.277 0.178-0.431 0.178s-0.314-0.061-0.431-0.178l-3.516-3.745c-0.037-0.037-0.098-0.037-0.136 0l-0.858 0.872c-0.717 0.727-1.669 1.13-2.691 1.134-1.036 0.005-2.020-0.431-2.747-1.167l-0.825-0.839c-0.037-0.037-0.098-0.037-0.136 0l-3.516 3.745c-0.117 0.117-0.277 0.178-0.431 0.178s-0.314-0.061-0.431-0.178c-0.239-0.239-0.239-0.623 0-0.862l3.53-3.759c0.033-0.038 0.033-0.094 0-0.131l-5.048-5.137c-0.061-0.061-0.159-0.019-0.159 0.066v10.28c0 0.825 0.675 1.5 1.5 1.5h16.5c0.825 0 1.5-0.675 1.5-1.5v-10.28c0-0.084-0.103-0.122-0.159-0.066z"></path>
<path d="M12 13.833c0.694 0 1.345-0.272 1.833-0.769l7.355-7.486c-0.258-0.206-0.577-0.328-0.928-0.328h-16.514c-0.352 0-0.675 0.122-0.928 0.328l7.355 7.486c0.483 0.492 1.134 0.769 1.828 0.769z"></path>
</symbol>
<symbol id="icon-search" viewBox="0 0 24 24">
<title>search</title>
<path d="M11 2c-4.959 0-9 4.041-9 9s4.041 9 9 9c2.115 0 4.061-0.74 5.6-1.969l3.703 3.703c0.182 0.19 0.438 0.307 0.721 0.307 0.552 0 1-0.448 1-1 0-0.283-0.118-0.539-0.307-0.721l-0-0-3.701-3.701c1.238-1.542 1.984-3.495 1.984-5.619 0-4.959-4.041-9-9-9zM11 4c3.878 0 7 3.122 7 7 0 1.923-0.768 3.661-2.016 4.924-0.025 0.022-0.048 0.044-0.070 0.068l-0.001 0.001c-1.262 1.242-2.995 2.008-4.914 2.008-3.878 0-7-3.122-7-7s3.122-7 7-7z"></path>
</symbol>
<symbol id="icon-link" viewBox="0 0 24 24">
<title>link</title>
<path d="M13.125 15.989l-0.056 0.005c-0.169 0.019-0.328 0.094-0.45 0.211l-3.028 3.028c-0.642 0.642-1.5 0.994-2.414 0.994s-1.772-0.352-2.414-0.994c-0.642-0.642-0.994-1.5-0.994-2.414s0.352-1.772 0.994-2.414l3.216-3.216c0.164-0.164 0.342-0.309 0.534-0.436 0.216-0.141 0.45-0.262 0.694-0.352 0.225-0.084 0.464-0.141 0.703-0.173 0.159-0.023 0.323-0.033 0.478-0.033 0.066 0 0.131 0.005 0.216 0.009 0.83 0.052 1.613 0.403 2.194 0.984 0.361 0.361 0.638 0.802 0.802 1.28 0.131 0.375 0.525 0.586 0.905 0.473 0.005 0 0.009-0.005 0.014-0.005s0.009 0 0.009-0.005c0.38-0.117 0.6-0.516 0.492-0.895-0.206-0.731-0.572-1.345-1.153-1.922-0.731-0.731-1.683-1.209-2.7-1.373-0.089-0.014-0.178-0.028-0.267-0.038-0.173-0.019-0.347-0.028-0.52-0.028-0.122 0-0.244 0.005-0.361 0.014-0.253 0.019-0.506 0.056-0.759 0.117-0.052 0.009-0.098 0.023-0.15 0.037-0.314 0.084-0.623 0.197-0.914 0.342-0.483 0.239-0.919 0.548-1.298 0.933l-3.216 3.216c-0.919 0.933-1.43 2.17-1.43 3.492s0.511 2.559 1.439 3.487c0.928 0.923 2.166 1.434 3.483 1.434 1.322 0 2.559-0.511 3.488-1.439l3.061-3.061c0.487-0.492 0.094-1.327-0.595-1.261z"></path>
<path d="M20.311 3.689c-0.928-0.928-2.166-1.439-3.483-1.439s-2.559 0.511-3.487 1.439l-2.986 2.986c-0.455 0.455-0.169 1.233 0.473 1.284 0.22 0.019 0.436-0.061 0.595-0.216l2.991-2.981c0.642-0.642 1.5-0.994 2.414-0.994s1.772 0.352 2.414 0.994c0.642 0.642 0.994 1.5 0.994 2.414s-0.352 1.772-0.994 2.414l-3.216 3.216c-0.164 0.164-0.342 0.309-0.534 0.436-0.216 0.141-0.45 0.262-0.694 0.352-0.225 0.084-0.464 0.141-0.703 0.173-0.159 0.023-0.323 0.033-0.478 0.033-0.066 0-0.136-0.005-0.216-0.009-0.83-0.052-1.613-0.403-2.194-0.984-0.342-0.342-0.6-0.75-0.769-1.195-0.136-0.361-0.52-0.558-0.895-0.459-0.417 0.108-0.661 0.548-0.53 0.961 0.211 0.656 0.567 1.214 1.111 1.758l0.009 0.009c0.792 0.792 1.847 1.294 2.967 1.411 0.173 0.019 0.347 0.028 0.52 0.028 0.122 0 0.244-0.005 0.366-0.014 0.305-0.023 0.609-0.075 0.905-0.15 0.314-0.084 0.623-0.197 0.914-0.342 0.483-0.239 0.919-0.548 1.298-0.933l3.216-3.216c0.928-0.928 1.439-2.166 1.439-3.487s-0.52-2.559-1.448-3.488z"></path>
</symbol>
<symbol id="icon-heart" viewBox="0 0 24 24">
<title>heart</title>
<path d="M16.5 2.625h-0.047c-1.861 0-3.506 0.984-4.453 2.438-0.947-1.453-2.592-2.438-4.453-2.438h-0.047c-2.902 0.028-5.25 2.386-5.25 5.297 0 1.734 0.759 4.195 2.241 6.22 2.822 3.858 7.509 7.233 7.509 7.233s4.688-3.375 7.509-7.233c1.481-2.025 2.241-4.486 2.241-6.22 0-2.911-2.348-5.269-5.25-5.297z"></path>
</symbol>
<symbol id="icon-rss" viewBox="0 0 24 24">
<title>rss</title>
<path d="M5.62 15.755c-1.444 0-2.62 1.177-2.62 2.616 0 1.444 1.177 2.606 2.62 2.606 1.448 0 2.62-1.167 2.62-2.606s-1.172-2.616-2.62-2.616z"></path>
<path d="M3 9v3.745c2.25 0 4.411 0.666 6 2.255s2.25 3.745 2.25 6h3.75c0-6.558-5.438-12-12-12z"></path>
<path d="M3 3v3.745c8.016 0 14.245 6.234 14.245 14.255h3.755c0-9.923-8.063-18-18-18z"></path>
</symbol>
<symbol id="icon-twitter" viewBox="0 0 24 24">
<title>twitter</title>
<path d="M23.063 5.133c-0.816 0.361-1.688 0.605-2.606 0.717 0.938-0.563 1.659-1.453 1.997-2.513-0.877 0.52-1.847 0.9-2.883 1.102-0.83-0.886-2.011-1.439-3.314-1.439-2.508 0-4.538 2.034-4.538 4.542 0 0.356 0.038 0.703 0.117 1.036-3.773-0.188-7.12-1.997-9.356-4.748-0.389 0.67-0.614 1.453-0.614 2.283 0 1.575 0.806 2.967 2.025 3.783-0.75-0.019-1.453-0.225-2.063-0.567v0.056c0 2.203 1.566 4.036 3.642 4.453-0.38 0.103-0.783 0.159-1.195 0.159-0.291 0-0.577-0.028-0.853-0.084 0.577 1.805 2.255 3.117 4.242 3.155-1.552 1.219-3.511 1.945-5.639 1.945-0.366 0-0.727-0.023-1.083-0.066 2.002 1.303 4.387 2.053 6.947 2.053 8.358 0 12.923-6.923 12.923-12.928 0-0.197-0.005-0.394-0.014-0.586 0.886-0.642 1.655-1.439 2.264-2.353z"></path>
</symbol>
<symbol id="icon-facebook" viewBox="0 0 24 24">
<title>facebook</title>
<path d="M20.006 3h-16.013c-0.548 0-0.994 0.445-0.994 0.994v16.013c0 0.548 0.445 0.994 0.994 0.994h8.006v-7.125h-2.152v-2.625h2.152v-1.941c0-2.325 1.612-3.591 3.689-3.591 0.994 0 2.063 0.075 2.311 0.108v2.428h-1.655c-1.13 0-1.345 0.534-1.345 1.322v1.673h2.691l-0.352 2.625h-2.339v7.125h5.006c0.548 0 0.994-0.445 0.994-0.994v-16.013c0-0.548-0.445-0.994-0.994-0.994z"></path>
</symbol>
<symbol id="icon-github" viewBox="0 0 24 24">
<title>github</title>
<path d="M12 1.5c-5.798 0-10.5 4.823-10.5 10.767 0 4.758 3.009 8.789 7.181 10.214 0.066 0.014 0.122 0.019 0.178 0.019 0.389 0 0.539-0.286 0.539-0.534 0-0.258-0.009-0.933-0.014-1.833-0.394 0.089-0.745 0.127-1.059 0.127-2.020 0-2.48-1.57-2.48-1.57-0.478-1.242-1.167-1.575-1.167-1.575-0.914-0.642-0.005-0.661 0.066-0.661h0.005c1.055 0.094 1.608 1.116 1.608 1.116 0.525 0.919 1.228 1.177 1.856 1.177 0.492 0 0.938-0.159 1.2-0.281 0.094-0.694 0.366-1.167 0.666-1.439-2.33-0.272-4.781-1.195-4.781-5.32 0-1.177 0.408-2.137 1.078-2.887-0.108-0.272-0.469-1.369 0.103-2.85 0 0 0.075-0.023 0.234-0.023 0.38 0 1.238 0.145 2.653 1.13 0.839-0.239 1.734-0.356 2.63-0.361 0.891 0.005 1.791 0.122 2.63 0.361 1.416-0.984 2.273-1.13 2.653-1.13 0.159 0 0.234 0.023 0.234 0.023 0.572 1.481 0.211 2.578 0.103 2.85 0.67 0.755 1.078 1.716 1.078 2.887 0 4.134-2.456 5.044-4.795 5.311 0.375 0.333 0.713 0.989 0.713 1.992 0 1.439-0.014 2.602-0.014 2.953 0 0.253 0.145 0.539 0.534 0.539 0.056 0 0.122-0.005 0.188-0.019 4.177-1.425 7.181-5.461 7.181-10.214 0-5.944-4.702-10.767-10.5-10.767z"></path>
</symbol>
<symbol id="icon-instagram" viewBox="0 0 24 24">
<title>instagram</title>
<path d="M15.75 4.5c0.994 0 1.936 0.394 2.648 1.102s1.102 1.655 1.102 2.648v7.5c0 0.994-0.394 1.936-1.102 2.648s-1.655 1.102-2.648 1.102h-7.5c-0.994 0-1.936-0.394-2.648-1.102s-1.102-1.655-1.102-2.648v-7.5c0-0.994 0.394-1.936 1.102-2.648s1.655-1.102 2.648-1.102h7.5zM15.75 3h-7.5c-2.887 0-5.25 2.363-5.25 5.25v7.5c0 2.888 2.363 5.25 5.25 5.25h7.5c2.888 0 5.25-2.362 5.25-5.25v-7.5c0-2.887-2.362-5.25-5.25-5.25z"></path>
<path d="M16.875 8.25c-0.623 0-1.125-0.502-1.125-1.125s0.502-1.125 1.125-1.125c0.619 0 1.125 0.502 1.125 1.125s-0.506 1.125-1.125 1.125zM12 9c1.655 0 3 1.345 3 3s-1.345 3-3 3-3-1.345-3-3 1.345-3 3-3zM12 7.5c-2.484 0-4.5 2.016-4.5 4.5s2.016 4.5 4.5 4.5 4.5-2.016 4.5-4.5-2.016-4.5-4.5-4.5z"></path>
</symbol>
<symbol id="icon-youtube" viewBox="0 0 24 24">
<title>youtube</title>
<path d="M23.841 6.975c0-2.109-1.552-3.806-3.469-3.806-2.597-0.122-5.245-0.169-7.95-0.169h-0.844c-2.7 0-5.353 0.047-7.95 0.169-1.912 0-3.464 1.706-3.464 3.816-0.117 1.669-0.169 3.337-0.164 5.006-0.005 1.669 0.047 3.337 0.159 5.011 0 2.109 1.552 3.82 3.464 3.82 2.728 0.127 5.527 0.183 8.372 0.178 2.85 0.009 5.639-0.047 8.372-0.178 1.917 0 3.469-1.711 3.469-3.82 0.112-1.673 0.164-3.342 0.159-5.016 0.009-1.669-0.042-3.337-0.155-5.011zM9.703 16.589v-9.211l6.797 4.603-6.797 4.608z"></path>
</symbol>
<symbol id="icon-whatsapp" viewBox="0 0 24 24">
<title>whatsapp</title>
<path d="M12.19 1.5c-5.693 0-10.309 4.58-10.309 10.23 0 1.933 0.541 3.74 1.479 5.282l-1.861 5.488 5.708-1.813c1.477 0.81 3.176 1.272 4.983 1.272 5.694 0 10.31-4.58 10.31-10.23s-4.616-10.23-10.31-10.23zM17.317 15.615c-0.243 0.601-1.339 1.15-1.823 1.175s-0.497 0.375-3.133-0.77c-2.636-1.145-4.221-3.93-4.346-4.11s-1.021-1.455-0.973-2.74c0.049-1.285 0.752-1.891 1.003-2.143s0.538-0.298 0.714-0.301c0.208-0.003 0.342-0.006 0.496-0.001s0.384-0.032 0.584 0.499c0.2 0.531 0.677 1.835 0.738 1.968s0.099 0.287 0.005 0.458c-0.094 0.171-0.143 0.278-0.279 0.426s-0.289 0.33-0.412 0.443c-0.137 0.125-0.28 0.261-0.136 0.528s0.64 1.142 1.396 1.863c0.971 0.927 1.809 1.234 2.067 1.374s0.413 0.125 0.573-0.044c0.16-0.169 0.686-0.738 0.872-0.992s0.359-0.205 0.597-0.109c0.238 0.096 1.507 0.776 1.766 0.916s0.431 0.212 0.493 0.323c0.062 0.112 0.042 0.634-0.2 1.236z"></path>
</symbol>
<symbol id="icon-puzzle" viewBox="0 0 22 24">
<title>puzzle</title>
<path d="M22.286 14.705c0 1.379-0.79 2.531-2.25 2.531-1.634 0-2.063-1.487-3.536-1.487-1.071 0-1.473 0.67-1.473 1.661 0 1.045 0.429 2.049 0.415 3.080v0.067c-0.147 0-0.295 0-0.442 0.013-1.379 0.134-2.772 0.402-4.165 0.402-0.951 0-1.942-0.375-1.942-1.473 0-1.473 1.487-1.902 1.487-3.536 0-1.46-1.152-2.25-2.531-2.25-1.406 0-2.705 0.777-2.705 2.317 0 1.701 1.299 2.438 1.299 3.362 0 0.469-0.295 0.884-0.616 1.192-0.415 0.388-1.004 0.469-1.567 0.469-1.098 0-2.196-0.147-3.281-0.321-0.241-0.040-0.496-0.067-0.737-0.107l-0.174-0.027c-0.027-0.013-0.067-0.013-0.067-0.027v-13.714c0.054 0.040 0.844 0.134 0.978 0.161 1.085 0.174 2.183 0.321 3.281 0.321 0.563 0 1.152-0.080 1.567-0.469 0.321-0.308 0.616-0.723 0.616-1.192 0-0.924-1.299-1.661-1.299-3.362 0-1.54 1.299-2.317 2.719-2.317 1.366 0 2.518 0.79 2.518 2.25 0 1.634-1.487 2.063-1.487 3.536 0 1.098 0.991 1.473 1.942 1.473 1.54 0 3.067-0.348 4.594-0.429v0.027c-0.040 0.054-0.134 0.844-0.161 0.978-0.174 1.085-0.321 2.183-0.321 3.281 0 0.563 0.080 1.152 0.469 1.567 0.308 0.321 0.723 0.616 1.192 0.616 0.924 0 1.661-1.299 3.362-1.299 1.54 0 2.317 1.299 2.317 2.705z"></path>
</symbol>
</defs>
</svg>
